/* XPM */
static char * tv_xpm[] = {
"48 47 813 2",
"  	c None",
". 	c #000000",
"+ 	c #F6F6F6",
"@ 	c #232323",
"# 	c #878787",
"$ 	c #343434",
"% 	c #171717",
"& 	c #252525",
"* 	c #494949",
"= 	c #4F4F4F",
"- 	c #3B3B3B",
"; 	c #3D3D3D",
"> 	c #0E0E0E",
", 	c #616161",
"' 	c #949494",
") 	c #A4A4A4",
"! 	c #010101",
"~ 	c #161616",
"{ 	c #8F8F8F",
"] 	c #090909",
"^ 	c #191919",
"/ 	c #131313",
"( 	c #474747",
"_ 	c #151515",
": 	c #181818",
"< 	c #191817",
"[ 	c #414140",
"} 	c #3B3A3A",
"| 	c #040302",
"1 	c #232426",
"2 	c #0D0E10",
"3 	c #0F1112",
"4 	c #37393C",
"5 	c #9197A1",
"6 	c #838994",
"7 	c #7E8591",
"8 	c #808692",
"9 	c #838995",
"0 	c #858B97",
"a 	c #878D99",
"b 	c #888E99",
"c 	c #898F9A",
"d 	c #898F9B",
"e 	c #878C98",
"f 	c #848A95",
"g 	c #848B95",
"h 	c #848B96",
"i 	c #828994",
"j 	c #808693",
"k 	c #7C8390",
"l 	c #7A818E",
"m 	c #79808C",
"n 	c #787F8C",
"o 	c #7A808C",
"p 	c #7C818C",
"q 	c #575D69",
"r 	c #6D7583",
"s 	c #6B7281",
"t 	c #6D7482",
"u 	c #707786",
"v 	c #757B89",
"w 	c #7E8492",
"x 	c #868D9A",
"y 	c #8A909E",
"z 	c #8C929F",
"A 	c #8E94A1",
"B 	c #8F95A2",
"C 	c #8F96A3",
"D 	c #9096A3",
"E 	c #9097A3",
"F 	c #9198A5",
"G 	c #9399A6",
"H 	c #8B93A0",
"I 	c #878F9C",
"J 	c #808795",
"K 	c #727987",
"L 	c #6F7685",
"M 	c #6D7483",
"N 	c #6A7280",
"O 	c #686F7E",
"P 	c #666E7D",
"Q 	c #646C7B",
"R 	c #646B7B",
"S 	c #636B7A",
"T 	c #5C6473",
"U 	c #545B6B",
"V 	c #848995",
"W 	c #656D7B",
"X 	c #626A79",
"Y 	c #69707F",
"Z 	c #7A818F",
"` 	c #5C606A",
" .	c #3B3D44",
"..	c #42454B",
"+.	c #43464C",
"@.	c #44474D",
"#.	c #45484E",
"$.	c #46494F",
"%.	c #474A4F",
"&.	c #474A50",
"*.	c #484B50",
"=.	c #484B51",
"-.	c #474A51",
";.	c #45494F",
">.	c #3F4248",
",.	c #50545D",
"'.	c #878E9C",
").	c #777E8D",
"!.	c #5F6777",
"~.	c #5C6474",
"{.	c #5B6373",
"].	c #5B6372",
"^.	c #5D6575",
"/.	c #565D6C",
"(.	c #454B58",
"_.	c #838794",
":.	c #6C7281",
"<.	c #69717F",
"[.	c #6E7683",
"}.	c #6D747F",
"|.	c #6B707A",
"1.	c #35383D",
"2.	c #030304",
"3.	c #090A0B",
"4.	c #090A0C",
"5.	c #08090B",
"6.	c #08080A",
"7.	c #070809",
"8.	c #060708",
"9.	c #050607",
"0.	c #040506",
"a.	c #030405",
"b.	c #020304",
"c.	c #020203",
"d.	c #010103",
"e.	c #000102",
"f.	c #1A1B1E",
"g.	c #848992",
"h.	c #8F95A1",
"i.	c #7C8391",
"j.	c #646C7A",
"k.	c #606777",
"l.	c #5C6372",
"m.	c #5D6574",
"n.	c #535967",
"o.	c #404651",
"p.	c #5B6069",
"q.	c #0B0B0C",
"r.	c #353941",
"s.	c #7D8799",
"t.	c #788191",
"u.	c #798192",
"v.	c #778091",
"w.	c #757E8E",
"x.	c #71798B",
"y.	c #6B7483",
"z.	c #656D7C",
"A.	c #565E6D",
"B.	c #505867",
"C.	c #495160",
"D.	c #434B59",
"E.	c #3E4453",
"F.	c #373E4B",
"G.	c #333A48",
"H.	c #21262F",
"I.	c #040404",
"J.	c #90939A",
"K.	c #A3A9B4",
"L.	c #747C88",
"M.	c #676E7B",
"N.	c #626877",
"O.	c #5C6272",
"P.	c #585F6E",
"Q.	c #5B6270",
"R.	c #5D6473",
"S.	c #545B69",
"T.	c #444A55",
"U.	c #808793",
"V.	c #737A88",
"W.	c #7C8290",
"X.	c #646973",
"Y.	c #0F1011",
"Z.	c #40454E",
"`.	c #727A89",
" +	c #8B95A8",
".+	c #8B95A7",
"++	c #8D96A9",
"@+	c #8C96A9",
"#+	c #8A94A6",
"$+	c #8690A1",
"%+	c #7F899A",
"&+	c #767E90",
"*+	c #6C7485",
"=+	c #626A7A",
"-+	c #5A6372",
";+	c #535B6A",
">+	c #4B5362",
",+	c #454C5B",
"'+	c #363D4A",
")+	c #343B4A",
"!+	c #384354",
"~+	c #2D3035",
"{+	c #717478",
"]+	c #A2A8B2",
"^+	c #69707D",
"/+	c #59606F",
"(+	c #AAADB5",
"_+	c #D2D8E1",
":+	c #637B96",
"<+	c #5B6678",
"[+	c #535966",
"}+	c #444954",
"|+	c #5F636E",
"1+	c #3B3E43",
"2+	c #2A2D33",
"3+	c #757E8D",
"4+	c #909AAC",
"5+	c #8C95A6",
"6+	c #8F99AA",
"7+	c #9199AB",
"8+	c #9099AB",
"9+	c #8E98A9",
"0+	c #8B94A5",
"a+	c #858E9F",
"b+	c #7C8495",
"c+	c #707887",
"d+	c #5A6270",
"e+	c #525967",
"f+	c #4A525F",
"g+	c #444B58",
"h+	c #3D4351",
"i+	c #343A47",
"j+	c #383F4E",
"k+	c #485469",
"l+	c #57585A",
"m+	c #B9BEC7",
"n+	c #6B727F",
"o+	c #5E6674",
"p+	c #808287",
"q+	c #ACAEB0",
"r+	c #B5C7D9",
"s+	c #6F7888",
"t+	c #4E5460",
"u+	c #434853",
"v+	c #858C9A",
"w+	c #303338",
"x+	c #0C0D0F",
"y+	c #828C9D",
"z+	c #8892A2",
"A+	c #8B95A5",
"B+	c #939CAD",
"C+	c #959FB0",
"D+	c #959DAE",
"E+	c #949CAD",
"F+	c #929BAC",
"G+	c #9098A9",
"H+	c #8C94A5",
"I+	c #838B9C",
"J+	c #777E8E",
"K+	c #69707E",
"L+	c #5C6371",
"M+	c #525A67",
"N+	c #4B535F",
"O+	c #3D4451",
"P+	c #373D4A",
"Q+	c #303642",
"R+	c #272C36",
"S+	c #5F6063",
"T+	c #B7BCC4",
"U+	c #6E737F",
"V+	c #6C727F",
"W+	c #20242A",
"X+	c #2B2B2B",
"Y+	c #F4F3F3",
"Z+	c #818691",
"`+	c #4A505E",
" @	c #434751",
".@	c #878C97",
"+@	c #888E9A",
"@@	c #36383D",
"#@	c #101114",
"$@	c #7E8797",
"%@	c #8A92A3",
"&@	c #8F97A8",
"*@	c #959EAD",
"=@	c #97A0B0",
"-@	c #939EAE",
";@	c #929AAC",
">@	c #868E9E",
",@	c #798190",
"'@	c #6A717F",
")@	c #5D6371",
"!@	c #4B525F",
"~@	c #444B57",
"{@	c #3E4450",
"]@	c #373D48",
"^@	c #313642",
"/@	c #2A2E3A",
"(@	c #606163",
"_@	c #B9BDC5",
":@	c #707580",
"<@	c #666B77",
"[@	c #5C626E",
"}@	c #5A5F6B",
"|@	c #666C77",
"1@	c #5E6571",
"2@	c #525964",
"3@	c #888D98",
"4@	c #8B919D",
"5@	c #383A3F",
"6@	c #7D8595",
"7@	c #8B93A3",
"8@	c #9099A8",
"9@	c #949DAD",
"0@	c #929CAB",
"a@	c #929BAA",
"b@	c #929BAB",
"c@	c #797F8F",
"d@	c #4B515D",
"e@	c #444A56",
"f@	c #3E444F",
"g@	c #373C47",
"h@	c #303641",
"i@	c #292E38",
"j@	c #707581",
"k@	c #666B76",
"l@	c #5C626F",
"m@	c #535A67",
"n@	c #535863",
"o@	c #5A606C",
"p@	c #545964",
"q@	c #434850",
"r@	c #8C929E",
"s@	c #393B40",
"t@	c #101113",
"u@	c #7B8393",
"v@	c #8A92A2",
"w@	c #8F97A7",
"x@	c #939BAB",
"y@	c #949CAC",
"z@	c #929AAA",
"A@	c #929AA9",
"B@	c #8D97A5",
"C@	c #838C9B",
"D@	c #767D8C",
"E@	c #686F7D",
"F@	c #5B616E",
"G@	c #515764",
"H@	c #4A4F5B",
"I@	c #434954",
"J@	c #3E434E",
"K@	c #313641",
"L@	c #BABEC5",
"M@	c #616571",
"N@	c #888C94",
"O@	c #9BA1AB",
"P@	c #5E6D81",
"Q@	c #535861",
"R@	c #43474F",
"S@	c #898E98",
"T@	c #8D939D",
"U@	c #3A3C40",
"V@	c #0F1012",
"W@	c #79818F",
"X@	c #8D94A4",
"Y@	c #939BAA",
"Z@	c #939AAA",
"`@	c #9299A9",
" #	c #9299A8",
".#	c #9098A7",
"+#	c #88919F",
"@#	c #7E8794",
"##	c #737A87",
"$#	c #646B78",
"%#	c #575D6A",
"&#	c #484D59",
"*#	c #424852",
"=#	c #393E49",
"-#	c #343943",
";#	c #2C303A",
">#	c #616263",
",#	c #BBBFC5",
"'#	c #71767F",
")#	c #5C616C",
"!#	c #AFB0B3",
"~#	c #E4E9ED",
"{#	c #859EBA",
"]#	c #616B7A",
"^#	c #42464F",
"/#	c #898D96",
"(#	c #8E939D",
"_#	c #0E0F11",
":#	c #757D8A",
"<#	c #808997",
"[#	c #878F9D",
"}#	c #8D95A4",
"|#	c #9199A8",
"1#	c #9098A6",
"2#	c #8E95A3",
"3#	c #8A919F",
"4#	c #828998",
"5#	c #787F8D",
"6#	c #6C7380",
"7#	c #5F6671",
"8#	c #545A65",
"9#	c #4C515C",
"0#	c #474B56",
"a#	c #424651",
"b#	c #40444F",
"c#	c #3E424C",
"d#	c #3A3E48",
"e#	c #30343D",
"f#	c #70757F",
"g#	c #6B707B",
"h#	c #2B2D32",
"i#	c #3E3E3D",
"j#	c #FCFEFF",
"k#	c #81858F",
"l#	c #484D58",
"m#	c #42464E",
"n#	c #8E929C",
"o#	c #6F7784",
"p#	c #7B8391",
"q#	c #818996",
"r#	c #888F9C",
"s#	c #8A929F",
"t#	c #89909E",
"u#	c #838997",
"v#	c #7B808E",
"w#	c #717783",
"x#	c #656B77",
"y#	c #585F69",
"z#	c #4F5560",
"A#	c #494E59",
"B#	c #444A54",
"C#	c #424751",
"D#	c #444852",
"E#	c #40454F",
"F#	c #606162",
"G#	c #BABEC4",
"H#	c #70747E",
"I#	c #686D77",
"J#	c #444850",
"K#	c #999B9F",
"L#	c #696E77",
"M#	c #4E535C",
"N#	c #42454D",
"O#	c #8D919B",
"P#	c #686F7B",
"Q#	c #747A88",
"R#	c #7A808D",
"S#	c #828996",
"T#	c #838A96",
"U#	c #818895",
"V#	c #7E8592",
"W#	c #717683",
"X#	c #676C78",
"Y#	c #5D626D",
"Z#	c #525862",
"`#	c #4B515A",
" $	c #464B55",
".$	c #434852",
"+$	c #444952",
"@$	c #494E57",
"#$	c #4B5059",
"$$	c #474D56",
"%$	c #3B4049",
"&$	c #000001",
"*$	c #5F6062",
"=$	c #BABDC3",
"-$	c #70747C",
";$	c #656872",
">$	c #60656F",
",$	c #585E68",
"'$	c #4C5159",
")$	c #575C65",
"!$	c #52575F",
"~$	c #42454C",
"{$	c #898D95",
"]$	c #8C9099",
"^$	c #3A3B3F",
"/$	c #0A0B0D",
"($	c #616771",
"_$	c #6B707C",
":$	c #707681",
"<$	c #757C88",
"[$	c #797F8C",
"}$	c #787F8A",
"|$	c #737A85",
"1$	c #656B76",
"2$	c #5D616D",
"3$	c #4E525C",
"4$	c #494D56",
"5$	c #454952",
"6$	c #51565F",
"7$	c #4F555E",
"8$	c #42474F",
"9$	c #5F5F61",
"0$	c #BABCC2",
"a$	c #6F737B",
"b$	c #62666F",
"c$	c #666A73",
"d$	c #686D75",
"e$	c #5A616C",
"f$	c #595F68",
"g$	c #51555E",
"h$	c #41454C",
"i$	c #868B92",
"j$	c #393B3E",
"k$	c #595E68",
"l$	c #606671",
"m$	c #646A75",
"n$	c #696F7A",
"o$	c #6B717C",
"p$	c #6C727D",
"q$	c #676C77",
"r$	c #626771",
"s$	c #5B606A",
"t$	c #565A63",
"u$	c #4D515B",
"v$	c #4B4E58",
"w$	c #4B4F58",
"x$	c #585E67",
"y$	c #5A6069",
"z$	c #555A63",
"A$	c #474C54",
"B$	c #010203",
"C$	c #5D5E5F",
"D$	c #B8BABF",
"E$	c #6C7078",
"F$	c #575B65",
"G$	c #B7B8BB",
"H$	c #EAF0F7",
"I$	c #6B86A3",
"J$	c #5A6370",
"K$	c #505259",
"L$	c #41444A",
"M$	c #858990",
"N$	c #868A93",
"O$	c #343538",
"P$	c #05070A",
"Q$	c #5C687A",
"R$	c #5A606B",
"S$	c #5A5E67",
"T$	c #5E636D",
"U$	c #616670",
"V$	c #5D626C",
"W$	c #5A5F68",
"X$	c #565B64",
"Y$	c #545962",
"Z$	c #525760",
"`$	c #50555E",
" %	c #4F535C",
".%	c #595E67",
"+%	c #5F646E",
"@%	c #5D616A",
"#%	c #5C626B",
"$%	c #5F6874",
"%%	c #565758",
"&%	c #BCBFC4",
"*%	c #6A6E76",
"=%	c #61656D",
"-%	c #58595B",
";%	c #7B7D7E",
">%	c #DAE4F0",
",%	c #767C85",
"'%	c #494C53",
")%	c #41434A",
"!%	c #83868E",
"~%	c #7F838C",
"{%	c #44464A",
"]%	c #17191C",
"^%	c #36404E",
"/%	c #525B69",
"(%	c #5B616C",
"_%	c #5A5E68",
":%	c #5C616B",
"<%	c #5E626C",
"[%	c #5C616A",
"}%	c #595E66",
"|%	c #585D66",
"1%	c #5A5F67",
"2%	c #5E636B",
"3%	c #676C76",
"4%	c #5C626C",
"5%	c #3B424B",
"6%	c #7C7D7F",
"7%	c #A6AAAF",
"8%	c #676B72",
"9%	c #656970",
"0%	c #272A2E",
"a%	c #2F3031",
"b%	c #D4D3D3",
"c%	c #76797F",
"d%	c #484C54",
"e%	c #404349",
"f%	c #81848B",
"g%	c #757A81",
"h%	c #65696F",
"i%	c #3F4043",
"j%	c #030302",
"k%	c #414C5C",
"l%	c #545E6D",
"m%	c #4C5158",
"n%	c #50555C",
"o%	c #51565E",
"p%	c #51555D",
"q%	c #53575E",
"r%	c #54575F",
"s%	c #555960",
"t%	c #575A62",
"u%	c #585C63",
"v%	c #575961",
"w%	c #636873",
"x%	c #4D535D",
"y%	c #090808",
"z%	c #AAABAE",
"A%	c #BABDC2",
"B%	c #7C7F84",
"C%	c #64686E",
"D%	c #5D6168",
"E%	c #5A5E65",
"F%	c #575A61",
"G%	c #505359",
"H%	c #404347",
"I%	c #7E8088",
"J%	c #676A71",
"K%	c #66686E",
"L%	c #616265",
"M%	c #131517",
"N%	c #262628",
"O%	c #B3B5B7",
"P%	c #B9BCBF",
"Q%	c #979A9E",
"R%	c #72747A",
"S%	c #61646B",
"T%	c #5C5F66",
"U%	c #5A5D64",
"V%	c #585B61",
"W%	c #55585F",
"X%	c #7B7D85",
"Y%	c #6A6D75",
"Z%	c #65686F",
"`%	c #71747A",
" &	c #898B90",
".&	c #777779",
"+&	c #737475",
"@&	c #797A7B",
"#&	c #7A7A7C",
"$&	c #7A7B7C",
"%&	c #7B7B7D",
"&&	c #7A7B7D",
"*&	c #797A7C",
"=&	c #737374",
"-&	c #87888A",
";&	c #C3C5C9",
">&	c #9A9DA1",
",&	c #787A7E",
"'&	c #65686D",
")&	c #5E6066",
"!&	c #5A5D63",
"~&	c #575A5F",
"{&	c #595C61",
"]&	c #505458",
"^&	c #787B82",
"/&	c #666970",
"(&	c #60646B",
"_&	c #6C6F76",
":&	c #83858B",
"<&	c #A6A9AE",
"[&	c #B7B9BE",
"}&	c #BABCC1",
"|&	c #BBBDC2",
"1&	c #BCBEC2",
"2&	c #BCBFC3",
"3&	c #BDBFC3",
"4&	c #BDC0C4",
"5&	c #BEC0C4",
"6&	c #BEBFC3",
"7&	c #BBBDC0",
"8&	c #B0B2B6",
"9&	c #909398",
"0&	c #75777C",
"a&	c #64676C",
"b&	c #5D6064",
"c&	c #5B5E63",
"d&	c #585B5F",
"e&	c #56585D",
"f&	c #4F5156",
"g&	c #414347",
"h&	c #75787E",
"i&	c #61656C",
"j&	c #5C6067",
"k&	c #62666C",
"l&	c #676970",
"m&	c #6A6C73",
"n&	c #6C6E75",
"o&	c #6D7076",
"p&	c #6E7076",
"q&	c #6E6F76",
"r&	c #6E7176",
"s&	c #6E7277",
"t&	c #6F7277",
"u&	c #6F7276",
"v&	c #6F7175",
"w&	c #6D7074",
"x&	c #6D6F73",
"y&	c #6B6D72",
"z&	c #686B6F",
"A&	c #65686C",
"B&	c #62656A",
"C&	c #606368",
"D&	c #5D6065",
"E&	c #5A5D62",
"F&	c #585B60",
"G&	c #4A4C51",
"H&	c #414348",
"I&	c #5B5E65",
"J&	c #5D6066",
"K&	c #5E6167",
"L&	c #5F6268",
"M&	c #616469",
"N&	c #63666B",
"O&	c #64676B",
"P&	c #63666C",
"Q&	c #64666B",
"R&	c #626569",
"S&	c #616468",
"T&	c #5F6267",
"U&	c #5E6166",
"V&	c #4E5054",
"W&	c #484A4F",
"X&	c #3D3F43",
"Y&	c #C3C3C3",
"Z&	c #ADADAD",
"`&	c #9C9C9C",
" *	c #747474",
".*	c #5D5D5E",
"+*	c #55585E",
"@*	c #505358",
"#*	c #515459",
"$*	c #52555A",
"%*	c #53565B",
"&*	c #53575B",
"**	c #54575B",
"=*	c #54575C",
"-*	c #55575C",
";*	c #55585C",
">*	c #53565A",
",*	c #52565A",
"'*	c #525559",
")*	c #515458",
"!*	c #505357",
"~*	c #4F5257",
"{*	c #4F5256",
"]*	c #4A4D52",
"^*	c #424549",
"/*	c #C6C6C6",
"(*	c #CCCCCC",
"_*	c #C7C7C7",
":*	c #AAAAAA",
"<*	c #999999",
"[*	c #5C5C5C",
"}*	c #4B4E53",
"|*	c #43454A",
"1*	c #424548",
"2*	c #434549",
"3*	c #424448",
"4*	c #414447",
"5*	c #404246",
"6*	c #3F4245",
"7*	c #3F4246",
"8*	c #404348",
"9*	c #34373B",
"0*	c #C8C8C8",
"a*	c #C9C9C9",
"b*	c #B9B9B9",
"c*	c #CACACA",
"d*	c #CDCDCD",
"e*	c #CBCBCB",
"f*	c #C2C2C2",
"g*	c #D8D8D8",
"h*	c #DDDDDD",
"i*	c #DCDCDC",
"j*	c #E1E1E1",
"k*	c #E6E6E6",
"l*	c #A1A1A1",
"m*	c #C4C4C4",
"n*	c #D5D5D5",
"o*	c #DFDFDF",
"p*	c #E4E4E4",
"q*	c #E5E5E5",
"r*	c #B6B6B6",
"s*	c #959595",
"t*	c #BEBEBE",
"u*	c #B7B7B7",
"v*	c #C1C1C1",
"w*	c #DEDEDE",
"x*	c #EAEAEA",
"y*	c #DBDBDB",
"z*	c #D3D3D3",
"A*	c #B0B0B0",
"B*	c #A7A7A7",
"C*	c #BABABA",
"D*	c #E7E7E7",
"E*	c #989898",
"F*	c #D0D0D0",
"G*	c #CFCFCF",
"H*	c #DADADA",
"I*	c #B5B5B5",
"J*	c #B4B4B4",
"K*	c #9B9B9B",
"L*	c #848484",
"                                                                                                ",
"                                                                                                ",
"                                    . . .                                   + @ . .             ",
"                                  # . . $                                     % . .             ",
"                                    . . & * =                             - ; > .               ",
"                                          . . , '                     ) $ . .                   ",
"                                              ! . ~               { ! . !                       ",
"                                                  ] ^ / (     & _ :                             ",
"                                                    . . < [ } | . .                             ",
"                                                        1 2 3 4                                 ",
"                        5 6 7 8 9 0 a b b c d d d d d d e f g 0 h i j 7 k l m n n o p q         ",
"                      r s t u v w x y z A B C D E E E D F G F H I J K L M N O P Q R S T U       ",
"                    V W X Y t Z `  ...+.@.#.$.%.&.*.*.=.=.-.&.;.>.,.'.).Y X !.~.{.].{.^./.(.    ",
"                    _.:.<.[.}.|.1.2.3.4.3.5.6.7.8.9.0.a.b.c.d.e.. f.g.h.i.Y j.k.~.].l.m.n.o.    ",
"                    7 L t }.p.q.r.s.t.u.v.w.x.y.z.^.A.B.C.D.E.F.G.H.I.J.K.L.M.N.O.P.Q.R.S.T.    ",
"                    U.V.W.X.Y.Z.`. +.+++@+#+$+%+&+*+=+-+;+>+,+E.'+)+!+~+{+]+^+/+(+_+:+<+[+}+    ",
"                    9 W.|+1+2+3+4+5+6+7+8+9+0+a+b+c+j.d+e+f+g+h+i+j+k+. l+m+n+o+p+q+r+s+t+u+    ",
"                    0 v+w+x+y+z+A+B+C+D+E+F+G+H+I+J+K+L+M+N+g+O+P+Q+R+. S+T+U+V+W+X+Y+Z+`+ @    ",
"                    .@+@@@#@$@%@&@*@=@C+-@B+;@&@>@,@'@)@e+!@~@{@]@^@/@. (@_@:@<@[@}@|@1@2@ @    ",
"                    3@4@5@#@6@7@8@9@D+9@0@a@b@8@>@c@'@)@[+d@e@f@g@h@i@. (@_@j@k@l@m@n@o@p@q@    ",
"                    b r@s@t@u@v@w@x@y@x@z@A@a@B@C@D@E@F@G@H@I@J@g@K@i@. (@L@:@M@N@O@P@d+Q@R@    ",
"                    S@T@U@V@W@>@X@A@Y@Z@`@ #.#+#@###$#%#t+&#*#J@=#-#;#. >#,#'#)#!#~#{#]#,.^#    ",
"                    /#(#U@_#:#<#[#}#.#|#1#2#3#4#5#6#7#8#9#0#a#b#c#d#e#. (@,#f#g#h#i#j#k#l#m#    ",
"                    /#n#U@2 o#p#q#r#3#s#t#'.u#v#w#x#y#z#A#B#C#D#D#E#-#. F#G#H#I#J##.K#L#M#N#    ",
"                    /#O#U@x+P#Q#R#j S#T#U#V#m W#X#Y#Z#`# $.$+$@$#$$$%$&$*$=$-$;$>$,$'$)$!$~$    ",
"                    {$]$^$/$($_$:$<$[$o }$|$}.1$2$p@3$4$5$+$@$6$Q@7$8$e.9$0$a$b$c$d$e$f$g$h$    ",
"                    i$/#j$3.k$l$m$n$o$p$g#q$r$s$t$g$u$v$4$w$6$x$y$z$A$B$C$D$E$F$G$H$I$J$K$L$    ",
"                    M$N$O$P$Q$R$S$T$>$U$>$V$W$X$Y$Z$`$ %,.Q@.%+%@%#%$%. %%&%*%=%-%;%>%,%'%)%    ",
"                    !%~%{%]%^%/%(%_%:%<%<%[%f$.%.%}%}%|%1%2%b$;$3%4%5%4 6%7%8%9%0%a%b%c%d%e%    ",
"                    f%g%h%i%j%k%l%m%n%o%g$,.n%p%p%p%q%r%s%t%u%v%w%x%y%z%A%B%C%D%D%E%n%F%G%H%    ",
"                    I%a$J%K%L%M%. . . . . . . . . . . . . . &$. . N%O%P%Q%R%S%T%U%V%W%V%G%H%    ",
"                    X%Y%Z%`% &.&+&@&@&#&$&$&$&$&$&$&$&%&%&&&*&@&=&-&;&>&,&'&)&!&V%~&~&{&]&H%    ",
"                    ^&/&(&_&:&<&[&}&|&1&2&3&3&3&4&4&5&5&5&6&1&7&7&8&9&0&a&b&c&{&d&~&~&e&f&g&    ",
"                    h&i&j&(&k&C%l&m&n&_&o&p&p&q&r&s&t&u&v&w&x&y&z&A&B&C&D&c&E&F&~&~&~&f&G&H&    ",
"                    /&T%I&J&K&L&M&B&B&N&N&N&N&N&O&a&P&Q&Q&N&B&R&S&T&U&D&c&E&{&F&F&F&F&V&W&X&    ",
"          Y&Z&`& *.*  +*@*@*#*$*%*&***=*=*=*=*=*-*;*=*=*=*=***&*>*,*'*)*!*~*{*{*{*{*{*]*^*      ",
"      /*(*_*:*<* *[*  }*|*1*^*^*1*1*2*^*^*^*^*^*2*2*^*^*^*^*2*3*3*3*4*H%5*6*7*7*7*7*7*8*9*      ",
"    0*(*a*b*                                                                                    ",
"  _*(*Y&                                                                                        ",
"c*c*a*                                                                                          ",
"d*e*b*                                                                                          ",
"d*0*                                                                                            ",
"a*c*0*                      f*g*h*i*j*k*a*l*                                                    ",
"m*0*d*                    i*n*o*p*q*q*n*r*`&s*Z&t*u*                                            ",
"  v*e*                  w*x*y*y*o*w*z*A*l*B*C*(*(*C*                                            ",
"    f*e*(*(*(*(*(*(*(*c*h*D*(*e*d*_*A*E*A*F*(*G*B*                                              ",
"                        F*H*I*J*u*A*K*E*L*                                                      "};
