/* XPM */
static char * logo_qmagneto_xpm[] = {
"32 31 416 2",
"  	c None",
". 	c #070707",
"+ 	c #1E1E1E",
"@ 	c #0A0A0A",
"# 	c #000000",
"$ 	c #222222",
"% 	c #4F4F4F",
"& 	c #282828",
"* 	c #050505",
"= 	c #636363",
"- 	c #7E7E7E",
"; 	c #878787",
"> 	c #454545",
", 	c #030303",
"' 	c #454443",
") 	c #393837",
"! 	c #7E838D",
"~ 	c #80858F",
"{ 	c #80858E",
"] 	c #7D818B",
"^ 	c #7B8089",
"/ 	c #7A7F88",
"( 	c #33353A",
"_ 	c #373B3F",
": 	c #787D87",
"< 	c #686D77",
"[ 	c #666B75",
"} 	c #646972",
"| 	c #656A75",
"1 	c #717986",
"2 	c #6D7483",
"3 	c #707786",
"4 	c #777D8B",
"5 	c #878E9B",
"6 	c #8D93A2",
"7 	c #9096A4",
"8 	c #9298A5",
"9 	c #9299A6",
"0 	c #939AA6",
"a 	c #929AA6",
"b 	c #9399A6",
"c 	c #969CA9",
"d 	c #939AA7",
"e 	c #8B93A0",
"f 	c #7E8593",
"g 	c #707785",
"h 	c #6E7583",
"i 	c #6A7180",
"j 	c #676F7E",
"k 	c #666D7C",
"l 	c #636B79",
"m 	c #555C6C",
"n 	c #6C7280",
"o 	c #646C7B",
"p 	c #6C7380",
"q 	c #717783",
"r 	c #232429",
"s 	c #232528",
"t 	c #242528",
"u 	c #242629",
"v 	c #25272A",
"w 	c #26272A",
"x 	c #26282A",
"y 	c #26282B",
"z 	c #1F2123",
"A 	c #4B4F57",
"B 	c #868C9A",
"C 	c #606878",
"D 	c #5B6373",
"E 	c #5A6271",
"F 	c #575E6D",
"G 	c #3B414C",
"H 	c #727987",
"I 	c #6C7381",
"J 	c #676D78",
"K 	c #0E0F10",
"L 	c #687080",
"M 	c #707887",
"N 	c #6F7787",
"O 	c #6C7484",
"P 	c #656D7C",
"Q 	c #5C6372",
"R 	c #515967",
"S 	c #48505E",
"T 	c #3F4754",
"U 	c #383D4B",
"V 	c #313745",
"W 	c #161A20",
"X 	c #76787D",
"Y 	c #99A0AC",
"Z 	c #686F7C",
"` 	c #606675",
" .	c #535A6A",
"..	c #5B6270",
"+.	c #565D6C",
"@.	c #3C424C",
"#.	c #787F8D",
"$.	c #6F7480",
"%.	c #18191B",
"&.	c #656D7A",
"*.	c #8A94A6",
"=.	c #8E98A9",
"-.	c #8F98AB",
";.	c #8C96A7",
">.	c #848E9F",
",.	c #767E90",
"'.	c #656D7D",
").	c #58616F",
"!.	c #4D5463",
"~.	c #434A58",
"{.	c #363D4A",
"].	c #3B4354",
"^.	c #181C23",
"/.	c #797B7F",
"(.	c #7A818D",
"_.	c #666C79",
":.	c #D0D2D6",
"<.	c #758CA5",
"[.	c #545B68",
"}.	c #3C414B",
"|.	c #8A919F",
"1.	c #212327",
"2.	c #666E7B",
"3.	c #8892A2",
"4.	c #919AAB",
"5.	c #949EAF",
"6.	c #949CAD",
"7.	c #8D95A6",
"8.	c #7F8798",
"9.	c #59606E",
"0.	c #4C5460",
"a.	c #424956",
"b.	c #383E4B",
"c.	c #2F3541",
"d.	c #010204",
"e.	c #787A7E",
"f.	c #7E848F",
"g.	c #5C626D",
"h.	c #1C1C1D",
"i.	c #EDEEF0",
"j.	c #525866",
"k.	c #3C3F48",
"l.	c #8E94A0",
"m.	c #26282C",
"n.	c #656C79",
"o.	c #8C94A4",
"p.	c #939CAC",
"q.	c #969EAF",
"r.	c #929DAD",
"s.	c #929BAB",
"t.	c #9099A9",
"u.	c #838B9B",
"v.	c #5A606E",
"w.	c #4C5360",
"x.	c #424854",
"y.	c #383E49",
"z.	c #2F3540",
"A.	c #7A7C7F",
"B.	c #818691",
"C.	c #636874",
"D.	c #575D6B",
"E.	c #545A65",
"F.	c #555C67",
"G.	c #3B3F47",
"H.	c #9097A3",
"I.	c #28292D",
"J.	c #636976",
"K.	c #929AAA",
"L.	c #939BAB",
"M.	c #929AA9",
"N.	c #8E98A6",
"O.	c #808897",
"P.	c #6B7280",
"Q.	c #585E6B",
"R.	c #4B505D",
"S.	c #414752",
"T.	c #383D48",
"U.	c #2F3440",
"V.	c #828791",
"W.	c #676B76",
"X.	c #9A9FA8",
"Y.	c #586679",
"Z.	c #555A64",
"`.	c #3B3F46",
" +	c #9297A2",
".+	c #282A2D",
"++	c #606671",
"@+	c #858D9C",
"#+	c #8E96A5",
"$+	c #9199A8",
"%+	c #9097A5",
"&+	c #878F9E",
"*+	c #78808D",
"=+	c #656C78",
"-+	c #535864",
";+	c #484D59",
">+	c #404550",
",+	c #3C404B",
"'+	c #353A44",
")+	c #020304",
"!+	c #7B7D7F",
"~+	c #828790",
"{+	c #636871",
"]+	c #8D8E8E",
"^+	c #B9C7D7",
"/+	c #525661",
"(+	c #3B3E46",
"_+	c #9296A1",
":+	c #595F6A",
"<+	c #7C8492",
"[+	c #868D9A",
"}+	c #89909E",
"|+	c #868D9B",
"1+	c #7D8290",
"2+	c #6E7480",
"3+	c #5A616C",
"4+	c #4D525E",
"5+	c #454A55",
"6+	c #424650",
"7+	c #444852",
"8+	c #3E434D",
"9+	c #030406",
"0+	c #7A7C7E",
"a+	c #81858F",
"b+	c #60646E",
"c+	c #3E4147",
"d+	c #95989D",
"e+	c #535861",
"f+	c #3A3D44",
"g+	c #91959F",
"h+	c #28292C",
"i+	c #50555E",
"j+	c #717683",
"k+	c #797F8C",
"l+	c #7E8491",
"m+	c #7D8490",
"n+	c #777E8A",
"o+	c #6C727E",
"p+	c #5F636F",
"q+	c #515660",
"r+	c #484D56",
"s+	c #434751",
"t+	c #474C55",
"u+	c #4F545C",
"v+	c #494F58",
"w+	c #050709",
"x+	c #797A7D",
"y+	c #81858D",
"z+	c #62666F",
"A+	c #5B606A",
"B+	c #4E535C",
"C+	c #545861",
"D+	c #3A3D43",
"E+	c #8D929B",
"F+	c #27292B",
"G+	c #474B53",
"H+	c #6A707B",
"I+	c #6B707B",
"J+	c #5C616B",
"K+	c #4D515B",
"L+	c #4A4D57",
"M+	c #4A4E57",
"N+	c #5A6069",
"O+	c #080A0C",
"P+	c #77787A",
"Q+	c #7E8289",
"R+	c #676B73",
"S+	c #EAEDF2",
"T+	c #607995",
"U+	c #52555D",
"V+	c #393C41",
"W+	c #878B95",
"X+	c #2A2B2E",
"Y+	c #3B4654",
"Z+	c #575E6A",
"`+	c #5E636D",
" @	c #5F636D",
".@	c #5B616A",
"+@	c #585D66",
"@@	c #575C65",
"#@	c #555B63",
"$@	c #545962",
"%@	c #595E66",
"&@	c #636771",
"*@	c #5B626C",
"=@	c #1C1F22",
"-@	c #7D7E80",
";@	c #797D84",
">@	c #595D63",
",@	c #363838",
"'@	c #DCDFE3",
")@	c #4F535B",
"!@	c #393C42",
"~@	c #787C83",
"{@	c #5F6267",
"]@	c #0C0B0A",
"^@	c #465162",
"/@	c #4A5058",
"(@	c #4C5158",
"_@	c #4D5159",
":@	c #4C5058",
"<@	c #4D5158",
"[@	c #4E5259",
"}@	c #50535B",
"|@	c #53575D",
"1@	c #5D616C",
"2@	c #393D45",
"3@	c #8B8B8D",
"4@	c #AEB2B7",
"5@	c #676B70",
"6@	c #5C6067",
"7@	c #4D5259",
"8@	c #52555B",
"9@	c #383B3E",
"0@	c #6F727B",
"a@	c #676A70",
"b@	c #7F8185",
"c@	c #424243",
"d@	c #3F3F3F",
"e@	c #3F4040",
"f@	c #404040",
"g@	c #404041",
"h@	c #3F3F40",
"i@	c #393939",
"j@	c #747577",
"k@	c #B5B8BB",
"l@	c #7C7E82",
"m@	c #616369",
"n@	c #5A5D63",
"o@	c #575A60",
"p@	c #575A5F",
"q@	c #52565B",
"r@	c #696C73",
"s@	c #60646B",
"t@	c #7A7C82",
"u@	c #A9ACB1",
"v@	c #B7B9BE",
"w@	c #B9BBC0",
"x@	c #B9BCC0",
"y@	c #BABCC1",
"z@	c #BABDC2",
"A@	c #BBBDC2",
"B@	c #BBBDC1",
"C@	c #B9BBBF",
"D@	c #B9BBBE",
"E@	c #A5A8AC",
"F@	c #77797E",
"G@	c #606368",
"H@	c #5B5E62",
"I@	c #585B60",
"J@	c #575A5E",
"K@	c #56595E",
"L@	c #505257",
"M@	c #3A3B3F",
"N@	c #5C5F66",
"O@	c #5E6268",
"P@	c #5F6268",
"Q@	c #61646A",
"R@	c #63656B",
"S@	c #63676C",
"T@	c #64676C",
"U@	c #64666C",
"V@	c #65686C",
"W@	c #64676D",
"X@	c #65676C",
"Y@	c #64676B",
"Z@	c #63656A",
"`@	c #616468",
" #	c #5E6166",
".#	c #5B5E63",
"+#	c #5A5D62",
"@#	c #4A4C51",
"##	c #383A3E",
"$#	c #C6C6C6",
"%#	c #A8A8A8",
"&#	c #7C7C7C",
"*#	c #606061",
"=#	c #595B61",
"-#	c #4E5155",
";#	c #4F5256",
">#	c #505358",
",#	c #515458",
"'#	c #525559",
")#	c #515559",
"!#	c #535559",
"~#	c #51555A",
"{#	c #515558",
"]#	c #505457",
"^#	c #4D5054",
"/#	c #4C4F53",
"(#	c #43464A",
"_#	c #CBCBCB",
":#	c #C5C5C5",
"<#	c #CCCCCC",
"[#	c #BABABA",
"}#	c #C4C4C4",
"|#	c #CDCDCD",
"1#	c #D0D0D0",
"2#	c #DFDFDF",
"3#	c #E3E3E3",
"4#	c #E5E5E5",
"5#	c #979797",
"6#	c #C9C9C9",
"7#	c #AFAFAF",
"8#	c #DDDDDD",
"9#	c #D9D9D9",
"0#	c #DBDBDB",
"a#	c #A2A2A2",
"b#	c #B4B4B4",
"c#	c #C0C0C0",
"d#	c #B9B9B9",
"e#	c #B7B7B7",
"f#	c #9B9B9B",
"g#	c #929292",
"h#	c #858585",
"i#	c #919191",
"                                                                ",
"                        . .                         + @         ",
"                        # $                         @ #         ",
"                            . %                 & *             ",
"                              # # = -     ; > #                 ",
"                                  # , ' ) #                     ",
"                      ! ~ { { ] ^   / ( _ ~ : < [ } |           ",
"              1 2 3 4 5 6 7 8 9 0 a b c d e f g h i j k l m     ",
"              n o p q r s t u v w x y v v z A B i C D E D F G   ",
"              H I J K L M N O P Q R S T U V W X Y Z `  ...+.@.  ",
"              #.$.%.&.*.=.-.;.>.,.'.).!.~.{.].^./.(._.:.<.[.}.  ",
"              |.1.2.3.4.5.6.4.7.8.I 9.0.a.b.c.d.e.f.g.h.i.j.k.  ",
"              l.m.n.o.p.q.r.s.t.u.2 v.w.x.y.z.d.A.B.C.D.E.F.G.  ",
"              H.I.J.o.K.L.K.M.N.O.P.Q.R.S.T.U.d.A.V.W.X.Y.Z.`.  ",
"               +.+++@+#+M.$+%+&+*+=+-+;+>+,+'+)+!+~+{+]+^+/+(+  ",
"              _+.+:+<+[+|.}+|+1+2+3+4+5+6+7+8+9+0+a+b+c+d+e+f+  ",
"              g+h+i+j+k+l+m+n+o+p+q+r+s+t+u+v+w+x+y+z+A+B+C+D+  ",
"              E+F+G+++J H+I+| J+C+K+L+M+e+N+e+O+P+Q+R+S+T+U+V+  ",
"              W+X+Y+Z+A+`+ @.@+@@@#@$@%@b+&@*@=@-@;@>@,@'@)@!@  ",
"              ~@{@]@^@/@(@_@:@<@<@[@}@U+|@1@2@3@4@5@6@6@7@8@9@  ",
"              0@a@b@c@d@e@f@f@f@f@f@g@g@h@i@j@k@l@m@n@o@p@q@9@  ",
"              r@s@t@u@v@w@x@y@y@z@A@A@B@C@D@E@F@G@H@I@J@K@L@M@  ",
"              s@N@O@P@Q@R@S@T@U@V@W@X@Y@Z@`@ # #.#+#I@I@K@@###  ",
"      $#%#&#*#=#-#;#>#,#'#'#'#)#!#'#)#~#{#,#]#;#-#^#^#^#/#(#    ",
"    _#:#                                                        ",
"  <#[#                                                          ",
"<#}#                                                            ",
"<#                                                              ",
"$#|#              1#2#3#4#:#5#                                  ",
"  6#7#          3#8#9#0#}#a#b#<#:#                              ",
"                9#c#d#e#f#g#h#i#                                "};
